<?xml version="1.0" encoding="UTF-8"?>
<svg version="1.1" xmlns="http://www.w3.org/2000/svg" width="225" height="225">
<path d="M0 0 C74.25 0 148.5 0 225 0 C225 74.25 225 148.5 225 225 C150.75 225 76.5 225 0 225 C0 150.75 0 76.5 0 0 Z " fill="#000000" transform="translate(0,0)"/>
<path d="M0 0 C1.010625 -0.01289063 2.02125 -0.02578125 3.0625 -0.0390625 C7.1110649 0.87617159 8.56958382 2.28262439 11 5.625 C11.36771245 8.4637401 11.48630804 10.64320151 11.3125 13.4375 C11.28994141 14.13037109 11.26738281 14.82324219 11.24414062 15.53710938 C11.18562661 17.23401573 11.0959548 18.92979861 11 20.625 C11.64324219 20.59019531 12.28648437 20.55539063 12.94921875 20.51953125 C22.58532713 20.23086039 32.63866704 21.51529652 41 26.625 C42 27.625 42 27.625 42.01953125 29.453125 C41.38602472 36.8639561 39.36918015 43.59459565 37 50.625 C32.58126928 51.92753629 29.81442493 51.21166265 25.5 49.75 C18.32295324 47.35206148 12.15692572 46.39994496 4.625 46.3125 C3.8 46.28349609 2.975 46.25449219 2.125 46.22460938 C-3.7836144 46.16364748 -7.14240384 47.2322925 -12 50.625 C-14.57264825 53.62642296 -14.11954754 56.68336203 -13.875 60.52734375 C-11.59721439 65.987928 -5.39378931 68.64437616 -0.3125 70.9375 C0.64112427 71.37352539 0.64112427 71.37352539 1.61401367 71.81835938 C5.32723226 73.49739545 9.07489725 75.07489395 12.8515625 76.60546875 C21.574413 80.14577339 29.73603479 83.46549734 37 89.625 C37.97646484 90.41970703 37.97646484 90.41970703 38.97265625 91.23046875 C45.69115402 97.23575019 49.47723752 105.8534023 50.16796875 114.80078125 C50.27729093 126.76062749 46.28588472 136.45851028 38.1875 145.25 C30.95805485 152.17452977 21.04387967 158.19016005 11 159.625 C11.05800781 160.93855469 11.11601563 162.25210938 11.17578125 163.60546875 C11.22269048 165.34111023 11.26818939 167.07679023 11.3125 168.8125 C11.35439453 169.67681641 11.39628906 170.54113281 11.43945312 171.43164062 C11.52413168 175.85186119 11.44650523 177.98492785 8.85546875 181.69921875 C5.59613913 183.89737128 3.89978301 184.29974213 0 184.25 C-1.010625 184.26289063 -2.02125 184.27578125 -3.0625 184.2890625 C-7.1656231 183.36149478 -8.57923455 182.05992949 -11 178.625 C-11.58157729 175.49017438 -11.47534117 172.48665016 -11.3125 169.3125 C-11.27866211 168.05856445 -11.27866211 168.05856445 -11.24414062 166.77929688 C-11.1855061 164.72708851 -11.09583215 162.67580798 -11 160.625 C-11.59683594 160.67140625 -12.19367188 160.7178125 -12.80859375 160.765625 C-25.39128922 161.28912496 -38.19358718 158.10353742 -49 151.625 C-48.61375277 143.24343511 -46.4744657 135.61234511 -44 127.625 C-39.59867733 126.29978423 -37.35638612 127.00923668 -33.25 128.9375 C-25.08715962 132.74609798 -17.38272094 133.97377421 -8.4375 133.9375 C-7.63892578 133.95361328 -6.84035156 133.96972656 -6.01757812 133.98632812 C0.54556591 133.99167706 5.93915057 132.74404961 11.4375 128.9375 C13.62685594 125.69725321 14.52431786 122.4721823 14 118.625 C11.34233481 112.59827438 8.67138461 110.22083285 2.75 107.5625 C1.6986084 107.06182007 1.6986084 107.06182007 0.62597656 106.55102539 C-4.2388472 104.28413909 -9.2022477 102.37673629 -14.25 100.5625 C-26.75386247 96.05534667 -39.11884671 89.57343025 -45.5 77.3125 C-49.04064728 68.60840876 -49.74913926 58.10846079 -46.87109375 49.0859375 C-45.42298536 46.09897763 -43.85319271 43.37696977 -42 40.625 C-41.55527344 39.95082031 -41.11054687 39.27664062 -40.65234375 38.58203125 C-34.08704328 29.91124083 -22.99890315 25.10776402 -13 21.625 C-12.34 21.625 -11.68 21.625 -11 21.625 C-11.05800781 20.52800781 -11.11601563 19.43101563 -11.17578125 18.30078125 C-11.22269688 16.84639686 -11.26819511 15.39196626 -11.3125 13.9375 C-11.35439453 13.21626953 -11.39628906 12.49503906 -11.43945312 11.75195312 C-11.5321973 7.68975828 -11.30608094 6.05039118 -8.85546875 2.64453125 C-5.58983705 0.33491211 -3.96146854 -0.05052894 0 0 Z " fill="#FBFBFB" transform="translate(116,20.375)"/>
<path d="M0 0 C0.33 0 0.66 0 1 0 C1 33.66 1 67.32 1 102 C-34.31 102 -69.62 102 -106 102 C-106 101.67 -106 101.34 -106 101 C-104.36804688 100.83564453 -104.36804688 100.83564453 -102.703125 100.66796875 C-71.7744686 97.40618289 -45.75136633 84.50094037 -25 61 C-11.0128626 43.5325985 -2.61544135 22.18615765 0 0 Z " fill="#FCFCFC" transform="translate(224,123)"/>
<path d="M0 0 C0.33 0 0.66 0 1 0 C1.10957031 1.08796875 1.21914063 2.1759375 1.33203125 3.296875 C4.26633421 31.14411025 14.48154287 53.98407095 34 74 C34.64324219 74.71671875 35.28648438 75.4334375 35.94921875 76.171875 C48.93782252 90.25929774 67.73979699 98.50867057 86 103 C86.82113281 103.21398437 87.64226562 103.42796875 88.48828125 103.6484375 C94.2661723 105.06468788 100.07493147 105.57915401 106 106 C106 106.33 106 106.66 106 107 C71.02 107 36.04 107 0 107 C0 71.69 0 36.38 0 0 Z " fill="#FCFCFC" transform="translate(0,118)"/>
<path d="M0 0 C34.98 0 69.96 0 106 0 C106 0.33 106 0.66 106 1 C105.01902344 1.09796875 104.03804688 1.1959375 103.02734375 1.296875 C72.33955394 4.59197643 46.49343362 17.79116865 26 41 C11.10616339 59.59970461 2.40621969 82.23973625 1 106 C0.67 106 0.34 106 0 106 C0 71.02 0 36.04 0 0 Z " fill="#FCFCFC" transform="translate(0,0)"/>
<path d="M0 0 C33.66 0 67.32 0 102 0 C102 33.66 102 67.32 102 102 C101.67 102 101.34 102 101 102 C100.86537354 101.17145508 100.86537354 101.17145508 100.72802734 100.32617188 C96.80814026 76.75803386 89.43792806 55.88910951 73 38 C72.55285645 37.51047852 72.10571289 37.02095703 71.64501953 36.51660156 C52.44444805 15.7275173 27.72260853 4.86607806 0 1 C0 0.67 0 0.34 0 0 Z " fill="#FDFDFD" transform="translate(123,0)"/>
</svg>
